<svg class="logo" xmlns="http://www.w3.org/2000/svg" viewBox="0 0 645.4000244140625 80.9000015258789"
    fill="#1A1A1A" fill-opacity="1" style="box-shadow: none; border-radius: 0px; opacity: 1;"
    preserveAspectRatio="xMidYMid meet" role="img">
    <path
        d="M57 62.88v1.84H46.86l-4.81-14.34H14.9l-4.81 14.34H0v-1.84L22 .8h13zM39.25 42.05L28.92 11.21h-.8L17.7 42.05zM72 59h-1.2l-.49 5.76h-8.79V.8h9.37v22.51H72a17.41 17.41 0 0114.11-6.81c11.62 0 20.27 9.05 20.27 24.59s-8.73 24.67-20.67 24.67A17.24 17.24 0 0172 59zm25.09-17.91c0-10.41-5.37-16.5-13.46-16.5S70 30.84 70 41.09s5.45 16.42 13.62 16.42 13.47-6.16 13.47-16.42zM109 49.1h9.45c.88 6.17 5.61 8.89 13.62 8.89 6.25 0 10.25-2.4 10.25-7.2 0-12.9-32.2 1.12-32.2-20.11 0-9.21 8.49-14.18 19.46-14.18 12 0 19.47 5.93 20.35 15.06h-9.45c-.64-5-5.29-7.45-11.22-7.45-5.68 0-9.93 1.92-9.93 6.09 0 11.29 32.6-1.28 32.12 19.86 0 9.62-7.37 15.7-19.62 15.7-12.71 0-22.4-5.68-22.83-16.66zM200.51 43.5h-37.25c.8 9.21 6.25 14.33 13.94 14.33 5.61 0 10.57-2.88 12.26-8.73h10.17c-2.73 10.5-10.82 16.58-22.43 16.58-14.1 0-23.23-9.29-23.23-24.59 0-14.5 9.13-24.51 23.23-24.51 14.34 0 23.15 10.17 23.39 24 0 .59 0 1.71-.08 2.92zm-36.93-7.45h27.16c-1.45-7.61-6.57-11.7-13.54-11.7s-12.1 3.85-13.62 11.7zM206.36 17.54h8.73l.56 5.29h1c3.13-4 7.45-6.17 13.38-6.17 13.3 0 16.74 9 16.74 20.75v27.31h-9.37V40c0-8.41-1.28-14.82-10.41-14.82-9 0-11.3 6.41-11.3 14v25.54h-9.37zM266.52 25.07v29.08a2.24 2.24 0 002.48 2.48h7.21v8.09H267c-6.33 0-9.69-3.44-9.69-9.77V25.07h-7.69v-7.53h7.69V5.61h9.21v11.93h9.69v7.53zM354.16 62.88v1.84h-10.1l-4.8-14.34H312.1l-4.8 14.34h-10.1v-1.84L319.15.8h13.06zm-17.71-20.83l-10.33-30.84h-.8l-10.41 30.84zM363.29 72.65h25.15a2.08 2.08 0 002.33-2.32V58h-1a17.52 17.52 0 01-14.34 7.13c-12 0-20.19-9.29-20.19-24.35s8.17-24.27 20.27-24.27a17.74 17.74 0 0114.18 6.81h1.12l.56-5.77h8.73v53.58c0 6.33-3.45 9.77-9.77 9.77h-27.04zm28.36-31.8c0-9.85-5.21-16.18-13.54-16.18s-13.54 6.09-13.54 16.1C364.57 50.94 370 57 378.19 57c8.33 0 13.46-6.38 13.46-16.15zM452.77 43.5h-37.25c.8 9.21 6.25 14.33 13.94 14.33 5.61 0 10.57-2.88 12.26-8.73h10.17c-2.72 10.5-10.81 16.58-22.43 16.58-14.1 0-23.23-9.29-23.23-24.59 0-14.5 9.13-24.51 23.23-24.51 14.34 0 23.15 10.17 23.39 24 0 .59 0 1.71-.08 2.92zm-36.93-7.45H443c-1.44-7.61-6.57-11.7-13.54-11.7s-12.09 3.85-13.62 11.7zM458.62 17.54h8.73l.56 5.29h1c3.12-4 7.44-6.17 13.37-6.17 13.3 0 16.74 9 16.74 20.75v27.31h-9.32V40c0-8.41-1.28-14.82-10.41-14.82-9 0-11.3 6.41-11.3 14v25.54h-9.37zM504 41.09c0-15.3 9.62-24.59 23.23-24.59 12 0 20.51 7 22 18.26h-9.29c-1.2-6.32-6.09-10.17-12.66-10.17-8.25 0-13.93 6.09-13.93 16.5 0 10.26 5.6 16.5 13.93 16.5 6.57 0 11.62-3.84 12.74-10.57h9.21c-1.28 11.7-10.09 18.74-22 18.74-13.57 0-23.23-9.37-23.23-24.67zM595.36 17.54V20l-19.62 53.77c-1.76 5-5.37 7.13-10.57 7.13h-11.78v-8.25h11.86a2.63 2.63 0 002.64-1.76L549.15 20v-2.46h9.21L571.89 57h.89l13.45-39.41zM604.63 20.43C604.63 8.33 613.68 0 625 0s20.4 8.33 20.4 20.43-9.13 20.34-20.4 20.34-20.37-8.33-20.37-20.34zm37.08 0c0-10.1-7.45-16.83-16.74-16.83s-16.74 6.73-16.74 16.83 7.45 16.66 16.77 16.66 16.71-6.65 16.71-16.66zm-24-11.62h8.65c4.65 0 7.85 1.92 7.85 6.57 0 3.28-1.6 4.81-3.2 5.45v.24c2.48.4 3 2.08 3 4.08v6.73h-3.76v-6.73a1.75 1.75 0 00-1.92-2h-6.81v8.73h-3.77zM625.37 20c3 0 5.13-.73 5.13-3.93s-2.24-3.92-5.13-3.92h-3.92V20z">
    </path>
</svg>